<?xml version="1.0" encoding="utf-8"?>
<!-- Generator: Adobe Illustrator 16.0.0, SVG Export Plug-In . SVG Version: 6.00 Build 0)  -->
<!DOCTYPE svg PUBLIC "-//W3C//DTD SVG 1.1//EN" "http://www.w3.org/Graphics/SVG/1.1/DTD/svg11.dtd">
<svg version="1.1" id="Layer_1" xmlns="http://www.w3.org/2000/svg" xmlns:xlink="http://www.w3.org/1999/xlink" x="0px" y="0px"
	 width="511.433px" height="579.359px" viewBox="0 -0.001 511.433 579.359" enable-background="new 0 -0.001 511.433 579.359"
	 xml:space="preserve">
<pattern  x="-223.083" y="543.056" width="72" height="72" patternUnits="userSpaceOnUse" id="SVGID_4_" viewBox="79.59 -148.621 72 72" overflow="visible">
	<g>
		<polygon fill="none" points="79.59,-76.621 151.59,-76.621 151.59,-148.621 79.59,-148.621 		"/>
		<g>
			<polygon fill="none" points="79.59,-148.621 151.59,-148.621 151.59,-76.621 79.59,-76.621 			"/>
			<g>
				<polygon fill="none" points="79.59,-148.621 151.59,-148.621 151.59,-76.621 79.59,-76.621 				"/>
				<g>
					
						<line fill="none" stroke="#231F20" stroke-width="0.3" stroke-linejoin="round" x1="144.106" y1="-66.105" x2="162.106" y2="-84.105"/>
					
						<line fill="none" stroke="#231F20" stroke-width="0.3" stroke-linejoin="round" x1="144.106" y1="-60.105" x2="168.106" y2="-84.105"/>
					
						<line fill="none" stroke="#231F20" stroke-width="0.3" stroke-linejoin="round" x1="144.106" y1="-54.105" x2="174.106" y2="-84.105"/>
					
						<line fill="none" stroke="#231F20" stroke-width="0.3" stroke-linejoin="round" x1="144.106" y1="-48.105" x2="180.106" y2="-84.105"/>
					
						<line fill="none" stroke="#231F20" stroke-width="0.3" stroke-linejoin="round" x1="144.106" y1="-42.105" x2="186.106" y2="-84.105"/>
					
						<line fill="none" stroke="#231F20" stroke-width="0.3" stroke-linejoin="round" x1="144.106" y1="-36.105" x2="192.106" y2="-84.105"/>
					
						<line fill="none" stroke="#231F20" stroke-width="0.3" stroke-linejoin="round" x1="144.106" y1="-30.105" x2="198.106" y2="-84.105"/>
					
						<line fill="none" stroke="#231F20" stroke-width="0.3" stroke-linejoin="round" x1="144.106" y1="-24.105" x2="204.106" y2="-84.105"/>
					
						<line fill="none" stroke="#231F20" stroke-width="0.3" stroke-linejoin="round" x1="144.106" y1="-18.105" x2="210.106" y2="-84.105"/>
					
						<line fill="none" stroke="#231F20" stroke-width="0.3" stroke-linejoin="round" x1="144.106" y1="-12.105" x2="216.106" y2="-84.105"/>
					
						<line fill="none" stroke="#231F20" stroke-width="0.3" stroke-linejoin="round" x1="144.106" y1="-6.105" x2="222.106" y2="-84.105"/>
					
						<line fill="none" stroke="#231F20" stroke-width="0.3" stroke-linejoin="round" x1="144.106" y1="-0.105" x2="228.106" y2="-84.105"/>
					
						<line fill="none" stroke="#231F20" stroke-width="0.3" stroke-linejoin="round" x1="150.106" y1="-0.105" x2="228.106" y2="-78.105"/>
				</g>
				<g>
					
						<line fill="none" stroke="#231F20" stroke-width="0.3" stroke-linejoin="round" x1="72.106" y1="-66.105" x2="90.106" y2="-84.105"/>
					
						<line fill="none" stroke="#231F20" stroke-width="0.3" stroke-linejoin="round" x1="72.106" y1="-60.105" x2="96.106" y2="-84.105"/>
					
						<line fill="none" stroke="#231F20" stroke-width="0.3" stroke-linejoin="round" x1="72.106" y1="-54.105" x2="102.106" y2="-84.105"/>
					
						<line fill="none" stroke="#231F20" stroke-width="0.3" stroke-linejoin="round" x1="72.106" y1="-48.105" x2="108.106" y2="-84.105"/>
					
						<line fill="none" stroke="#231F20" stroke-width="0.3" stroke-linejoin="round" x1="72.106" y1="-42.105" x2="114.106" y2="-84.105"/>
					
						<line fill="none" stroke="#231F20" stroke-width="0.3" stroke-linejoin="round" x1="72.106" y1="-36.105" x2="120.106" y2="-84.105"/>
					
						<line fill="none" stroke="#231F20" stroke-width="0.3" stroke-linejoin="round" x1="72.106" y1="-30.105" x2="126.106" y2="-84.105"/>
					
						<line fill="none" stroke="#231F20" stroke-width="0.3" stroke-linejoin="round" x1="72.106" y1="-24.105" x2="132.106" y2="-84.105"/>
					
						<line fill="none" stroke="#231F20" stroke-width="0.3" stroke-linejoin="round" x1="72.106" y1="-18.105" x2="138.106" y2="-84.105"/>
					
						<line fill="none" stroke="#231F20" stroke-width="0.3" stroke-linejoin="round" x1="72.106" y1="-12.105" x2="144.106" y2="-84.105"/>
					
						<line fill="none" stroke="#231F20" stroke-width="0.3" stroke-linejoin="round" x1="72.106" y1="-6.105" x2="150.106" y2="-84.105"/>
					
						<line fill="none" stroke="#231F20" stroke-width="0.3" stroke-linejoin="round" x1="72.106" y1="-0.105" x2="156.106" y2="-84.105"/>
					
						<line fill="none" stroke="#231F20" stroke-width="0.3" stroke-linejoin="round" x1="78.106" y1="-0.105" x2="156.106" y2="-78.105"/>
				</g>
				<g>
					
						<line fill="none" stroke="#231F20" stroke-width="0.3" stroke-linejoin="round" x1="0.106" y1="-0.105" x2="84.106" y2="-84.105"/>
					
						<line fill="none" stroke="#231F20" stroke-width="0.3" stroke-linejoin="round" x1="6.106" y1="-0.105" x2="84.106" y2="-78.105"/>
				</g>
				<g>
					
						<line fill="none" stroke="#231F20" stroke-width="0.3" stroke-linejoin="round" x1="144.106" y1="-138.105" x2="162.106" y2="-156.105"/>
					
						<line fill="none" stroke="#231F20" stroke-width="0.3" stroke-linejoin="round" x1="144.106" y1="-132.105" x2="168.106" y2="-156.105"/>
					
						<line fill="none" stroke="#231F20" stroke-width="0.3" stroke-linejoin="round" x1="144.106" y1="-126.105" x2="174.106" y2="-156.105"/>
					
						<line fill="none" stroke="#231F20" stroke-width="0.3" stroke-linejoin="round" x1="144.106" y1="-120.105" x2="180.106" y2="-156.105"/>
					
						<line fill="none" stroke="#231F20" stroke-width="0.3" stroke-linejoin="round" x1="144.106" y1="-114.105" x2="186.106" y2="-156.105"/>
					
						<line fill="none" stroke="#231F20" stroke-width="0.3" stroke-linejoin="round" x1="144.106" y1="-108.105" x2="192.106" y2="-156.105"/>
					
						<line fill="none" stroke="#231F20" stroke-width="0.3" stroke-linejoin="round" x1="144.106" y1="-102.105" x2="198.106" y2="-156.105"/>
					
						<line fill="none" stroke="#231F20" stroke-width="0.3" stroke-linejoin="round" x1="144.106" y1="-96.105" x2="204.106" y2="-156.105"/>
					
						<line fill="none" stroke="#231F20" stroke-width="0.3" stroke-linejoin="round" x1="144.106" y1="-90.105" x2="210.106" y2="-156.105"/>
					
						<line fill="none" stroke="#231F20" stroke-width="0.3" stroke-linejoin="round" x1="144.106" y1="-84.105" x2="216.106" y2="-156.105"/>
					
						<line fill="none" stroke="#231F20" stroke-width="0.3" stroke-linejoin="round" x1="144.106" y1="-78.105" x2="222.106" y2="-156.105"/>
					
						<line fill="none" stroke="#231F20" stroke-width="0.3" stroke-linejoin="round" x1="144.106" y1="-72.105" x2="228.106" y2="-156.105"/>
					
						<line fill="none" stroke="#231F20" stroke-width="0.3" stroke-linejoin="round" x1="150.106" y1="-72.105" x2="228.106" y2="-150.105"/>
				</g>
				<g>
					
						<line fill="none" stroke="#231F20" stroke-width="0.3" stroke-linejoin="round" x1="72.106" y1="-138.105" x2="90.106" y2="-156.105"/>
					
						<line fill="none" stroke="#231F20" stroke-width="0.3" stroke-linejoin="round" x1="72.106" y1="-132.105" x2="96.106" y2="-156.105"/>
					
						<line fill="none" stroke="#231F20" stroke-width="0.3" stroke-linejoin="round" x1="72.106" y1="-126.105" x2="102.106" y2="-156.105"/>
					
						<line fill="none" stroke="#231F20" stroke-width="0.3" stroke-linejoin="round" x1="72.106" y1="-120.105" x2="108.106" y2="-156.105"/>
					
						<line fill="none" stroke="#231F20" stroke-width="0.3" stroke-linejoin="round" x1="72.106" y1="-114.105" x2="114.106" y2="-156.105"/>
					
						<line fill="none" stroke="#231F20" stroke-width="0.3" stroke-linejoin="round" x1="72.106" y1="-108.105" x2="120.106" y2="-156.105"/>
					
						<line fill="none" stroke="#231F20" stroke-width="0.3" stroke-linejoin="round" x1="72.106" y1="-102.105" x2="126.106" y2="-156.105"/>
					
						<line fill="none" stroke="#231F20" stroke-width="0.3" stroke-linejoin="round" x1="72.106" y1="-96.105" x2="132.106" y2="-156.105"/>
					
						<line fill="none" stroke="#231F20" stroke-width="0.3" stroke-linejoin="round" x1="72.106" y1="-90.105" x2="138.106" y2="-156.105"/>
					
						<line fill="none" stroke="#231F20" stroke-width="0.3" stroke-linejoin="round" x1="72.106" y1="-84.105" x2="144.106" y2="-156.105"/>
					
						<line fill="none" stroke="#231F20" stroke-width="0.3" stroke-linejoin="round" x1="72.106" y1="-78.105" x2="150.106" y2="-156.105"/>
					
						<line fill="none" stroke="#231F20" stroke-width="0.3" stroke-linejoin="round" x1="72.106" y1="-72.105" x2="156.106" y2="-156.105"/>
					
						<line fill="none" stroke="#231F20" stroke-width="0.3" stroke-linejoin="round" x1="78.106" y1="-72.105" x2="156.106" y2="-150.105"/>
					
						<line fill="none" stroke="#231F20" stroke-width="0.3" stroke-linejoin="round" x1="84.106" y1="-72.105" x2="156.106" y2="-144.105"/>
					
						<line fill="none" stroke="#231F20" stroke-width="0.3" stroke-linejoin="round" x1="90.106" y1="-72.105" x2="156.106" y2="-138.105"/>
					
						<line fill="none" stroke="#231F20" stroke-width="0.3" stroke-linejoin="round" x1="96.106" y1="-72.105" x2="156.106" y2="-132.105"/>
					
						<line fill="none" stroke="#231F20" stroke-width="0.3" stroke-linejoin="round" x1="102.106" y1="-72.105" x2="156.106" y2="-126.105"/>
					
						<line fill="none" stroke="#231F20" stroke-width="0.3" stroke-linejoin="round" x1="108.106" y1="-72.105" x2="156.106" y2="-120.105"/>
					
						<line fill="none" stroke="#231F20" stroke-width="0.3" stroke-linejoin="round" x1="114.106" y1="-72.105" x2="156.106" y2="-114.105"/>
					
						<line fill="none" stroke="#231F20" stroke-width="0.3" stroke-linejoin="round" x1="120.106" y1="-72.105" x2="156.106" y2="-108.105"/>
					
						<line fill="none" stroke="#231F20" stroke-width="0.3" stroke-linejoin="round" x1="126.106" y1="-72.105" x2="156.106" y2="-102.105"/>
					
						<line fill="none" stroke="#231F20" stroke-width="0.3" stroke-linejoin="round" x1="132.106" y1="-72.105" x2="156.106" y2="-96.105"/>
					
						<line fill="none" stroke="#231F20" stroke-width="0.3" stroke-linejoin="round" x1="138.106" y1="-72.105" x2="156.106" y2="-90.105"/>
					
						<line fill="none" stroke="#231F20" stroke-width="0.3" stroke-linejoin="round" x1="144.106" y1="-72.105" x2="156.106" y2="-84.105"/>
				</g>
				<g>
					
						<line fill="none" stroke="#231F20" stroke-width="0.3" stroke-linejoin="round" x1="0.106" y1="-72.105" x2="84.106" y2="-156.105"/>
					
						<line fill="none" stroke="#231F20" stroke-width="0.3" stroke-linejoin="round" x1="6.106" y1="-72.105" x2="84.106" y2="-150.105"/>
					
						<line fill="none" stroke="#231F20" stroke-width="0.3" stroke-linejoin="round" x1="12.106" y1="-72.105" x2="84.106" y2="-144.105"/>
					
						<line fill="none" stroke="#231F20" stroke-width="0.3" stroke-linejoin="round" x1="18.106" y1="-72.105" x2="84.106" y2="-138.105"/>
					
						<line fill="none" stroke="#231F20" stroke-width="0.3" stroke-linejoin="round" x1="24.106" y1="-72.105" x2="84.106" y2="-132.105"/>
					
						<line fill="none" stroke="#231F20" stroke-width="0.3" stroke-linejoin="round" x1="30.106" y1="-72.105" x2="84.106" y2="-126.105"/>
					
						<line fill="none" stroke="#231F20" stroke-width="0.3" stroke-linejoin="round" x1="36.106" y1="-72.105" x2="84.106" y2="-120.105"/>
					
						<line fill="none" stroke="#231F20" stroke-width="0.3" stroke-linejoin="round" x1="42.106" y1="-72.105" x2="84.106" y2="-114.105"/>
					
						<line fill="none" stroke="#231F20" stroke-width="0.3" stroke-linejoin="round" x1="48.106" y1="-72.105" x2="84.106" y2="-108.105"/>
					
						<line fill="none" stroke="#231F20" stroke-width="0.3" stroke-linejoin="round" x1="54.106" y1="-72.105" x2="84.106" y2="-102.105"/>
					
						<line fill="none" stroke="#231F20" stroke-width="0.3" stroke-linejoin="round" x1="60.106" y1="-72.105" x2="84.106" y2="-96.105"/>
					
						<line fill="none" stroke="#231F20" stroke-width="0.3" stroke-linejoin="round" x1="66.106" y1="-72.105" x2="84.106" y2="-90.105"/>
					
						<line fill="none" stroke="#231F20" stroke-width="0.3" stroke-linejoin="round" x1="72.106" y1="-72.105" x2="84.106" y2="-84.105"/>
				</g>
				<g>
					
						<line fill="none" stroke="#231F20" stroke-width="0.3" stroke-linejoin="round" x1="144.106" y1="-144.105" x2="228.106" y2="-228.105"/>
					
						<line fill="none" stroke="#231F20" stroke-width="0.3" stroke-linejoin="round" x1="150.106" y1="-144.105" x2="228.106" y2="-222.105"/>
				</g>
				<g>
					
						<line fill="none" stroke="#231F20" stroke-width="0.3" stroke-linejoin="round" x1="72.106" y1="-144.105" x2="156.106" y2="-228.105"/>
					
						<line fill="none" stroke="#231F20" stroke-width="0.3" stroke-linejoin="round" x1="78.106" y1="-144.105" x2="156.106" y2="-222.105"/>
					
						<line fill="none" stroke="#231F20" stroke-width="0.3" stroke-linejoin="round" x1="84.106" y1="-144.105" x2="156.106" y2="-216.105"/>
					
						<line fill="none" stroke="#231F20" stroke-width="0.3" stroke-linejoin="round" x1="90.106" y1="-144.105" x2="156.106" y2="-210.105"/>
					
						<line fill="none" stroke="#231F20" stroke-width="0.3" stroke-linejoin="round" x1="96.106" y1="-144.105" x2="156.106" y2="-204.105"/>
					
						<line fill="none" stroke="#231F20" stroke-width="0.3" stroke-linejoin="round" x1="102.106" y1="-144.105" x2="156.106" y2="-198.105"/>
					
						<line fill="none" stroke="#231F20" stroke-width="0.3" stroke-linejoin="round" x1="108.106" y1="-144.105" x2="156.106" y2="-192.105"/>
					
						<line fill="none" stroke="#231F20" stroke-width="0.3" stroke-linejoin="round" x1="114.106" y1="-144.105" x2="156.106" y2="-186.105"/>
					
						<line fill="none" stroke="#231F20" stroke-width="0.3" stroke-linejoin="round" x1="120.106" y1="-144.105" x2="156.106" y2="-180.105"/>
					
						<line fill="none" stroke="#231F20" stroke-width="0.3" stroke-linejoin="round" x1="126.106" y1="-144.105" x2="156.106" y2="-174.105"/>
					
						<line fill="none" stroke="#231F20" stroke-width="0.3" stroke-linejoin="round" x1="132.106" y1="-144.105" x2="156.106" y2="-168.105"/>
					
						<line fill="none" stroke="#231F20" stroke-width="0.3" stroke-linejoin="round" x1="138.106" y1="-144.105" x2="156.106" y2="-162.105"/>
					
						<line fill="none" stroke="#231F20" stroke-width="0.3" stroke-linejoin="round" x1="144.106" y1="-144.105" x2="156.106" y2="-156.105"/>
				</g>
				<g>
					
						<line fill="none" stroke="#231F20" stroke-width="0.3" stroke-linejoin="round" x1="0.106" y1="-144.105" x2="84.106" y2="-228.105"/>
					
						<line fill="none" stroke="#231F20" stroke-width="0.3" stroke-linejoin="round" x1="6.106" y1="-144.105" x2="84.106" y2="-222.105"/>
					
						<line fill="none" stroke="#231F20" stroke-width="0.3" stroke-linejoin="round" x1="12.106" y1="-144.105" x2="84.106" y2="-216.105"/>
					
						<line fill="none" stroke="#231F20" stroke-width="0.3" stroke-linejoin="round" x1="18.106" y1="-144.105" x2="84.106" y2="-210.105"/>
					
						<line fill="none" stroke="#231F20" stroke-width="0.3" stroke-linejoin="round" x1="24.106" y1="-144.105" x2="84.106" y2="-204.105"/>
					
						<line fill="none" stroke="#231F20" stroke-width="0.3" stroke-linejoin="round" x1="30.106" y1="-144.105" x2="84.106" y2="-198.105"/>
					
						<line fill="none" stroke="#231F20" stroke-width="0.3" stroke-linejoin="round" x1="36.106" y1="-144.105" x2="84.106" y2="-192.105"/>
					
						<line fill="none" stroke="#231F20" stroke-width="0.3" stroke-linejoin="round" x1="42.106" y1="-144.105" x2="84.106" y2="-186.105"/>
					
						<line fill="none" stroke="#231F20" stroke-width="0.3" stroke-linejoin="round" x1="48.106" y1="-144.105" x2="84.106" y2="-180.105"/>
					
						<line fill="none" stroke="#231F20" stroke-width="0.3" stroke-linejoin="round" x1="54.106" y1="-144.105" x2="84.106" y2="-174.105"/>
					
						<line fill="none" stroke="#231F20" stroke-width="0.3" stroke-linejoin="round" x1="60.106" y1="-144.105" x2="84.106" y2="-168.105"/>
					
						<line fill="none" stroke="#231F20" stroke-width="0.3" stroke-linejoin="round" x1="66.106" y1="-144.105" x2="84.106" y2="-162.105"/>
					
						<line fill="none" stroke="#231F20" stroke-width="0.3" stroke-linejoin="round" x1="72.106" y1="-144.105" x2="84.106" y2="-156.105"/>
				</g>
			</g>
		</g>
	</g>
</pattern>
<pattern  x="-223.083" y="543.056" width="72" height="72" patternUnits="userSpaceOnUse" id="SVGID_5_" viewBox="72.25 -144.25 72 72" overflow="visible">
	<g>
		<polygon fill="none" points="72.25,-72.25 144.25,-72.25 144.25,-144.25 72.25,-144.25 		"/>
		<g>
			<polygon fill="none" points="72.25,-144.25 144.25,-144.25 144.25,-72.25 72.25,-72.25 			"/>
			<g>
				<polygon fill="none" points="72.25,-144.25 144.25,-144.25 144.25,-72.25 72.25,-72.25 				"/>
				<g>
					<line fill="none" stroke="#231F20" stroke-width="0.3" x1="126.25" y1="-72.5" x2="126.25" y2="0"/>
					<line fill="none" stroke="#231F20" stroke-width="0.3" x1="90.25" y1="-72.5" x2="90.25" y2="0"/>
				</g>
				<g>
					<line fill="none" stroke="#231F20" stroke-width="0.3" x1="144" y1="-126.25" x2="216.5" y2="-126.25"/>
					<line fill="none" stroke="#231F20" stroke-width="0.3" x1="144" y1="-90.25" x2="216.5" y2="-90.25"/>
				</g>
				<g>
					<line fill="none" stroke="#231F20" stroke-width="0.3" x1="72" y1="-126.25" x2="144.5" y2="-126.25"/>
					<line fill="none" stroke="#231F20" stroke-width="0.3" x1="126.25" y1="-144.5" x2="126.25" y2="-72"/>
					<line fill="none" stroke="#231F20" stroke-width="0.3" x1="72" y1="-90.25" x2="144.5" y2="-90.25"/>
					<line fill="none" stroke="#231F20" stroke-width="0.3" x1="90.25" y1="-144.5" x2="90.25" y2="-72"/>
				</g>
				<g>
					<line fill="none" stroke="#231F20" stroke-width="0.3" x1="0" y1="-126.25" x2="72.5" y2="-126.25"/>
					<line fill="none" stroke="#231F20" stroke-width="0.3" x1="0" y1="-90.25" x2="72.5" y2="-90.25"/>
				</g>
				<g>
					<line fill="none" stroke="#231F20" stroke-width="0.3" x1="126.25" y1="-216.5" x2="126.25" y2="-144"/>
					<line fill="none" stroke="#231F20" stroke-width="0.3" x1="90.25" y1="-216.5" x2="90.25" y2="-144"/>
				</g>
			</g>
		</g>
	</g>
</pattern>
<pattern  x="-223.083" y="543.056" width="72" height="74.8" patternUnits="userSpaceOnUse" id="SVGID_6_" viewBox="72.15 -74.8 72 74.8" overflow="visible">
	<g>
		<polygon fill="none" points="72.15,0 144.15,0 144.15,-74.8 72.15,-74.8 		"/>
		<g>
			<polygon fill="none" points="72.15,-74.8 144.15,-74.8 144.15,0 72.15,0 			"/>
			<g>
				<polygon fill="none" points="72.15,-74.8 144.15,-74.8 144.15,0 72.15,0 				"/>
				<g>
					
						<line fill="none" stroke="#231F20" stroke-width="0.3" stroke-linecap="square" x1="144.15" y1="-0.851" x2="216.15" y2="-0.851"/>
					
						<line fill="none" stroke="#231F20" stroke-width="0.3" stroke-linecap="square" x1="144.15" y1="-2.55" x2="216.15" y2="-2.55"/>
					
						<line fill="none" stroke="#231F20" stroke-width="0.3" stroke-linecap="square" x1="144.15" y1="-4.25" x2="216.15" y2="-4.25"/>
					
						<line fill="none" stroke="#231F20" stroke-width="0.3" stroke-linecap="square" x1="144.15" y1="-5.949" x2="216.15" y2="-5.949"/>
					
						<line fill="none" stroke="#231F20" stroke-width="0.3" stroke-linecap="square" x1="144.15" y1="-7.65" x2="216.15" y2="-7.65"/>
					
						<line fill="none" stroke="#231F20" stroke-width="0.3" stroke-linecap="square" x1="144.15" y1="-9.351" x2="216.15" y2="-9.351"/>
					
						<line fill="none" stroke="#231F20" stroke-width="0.3" stroke-linecap="square" x1="144.15" y1="-11.05" x2="216.15" y2="-11.05"/>
					
						<line fill="none" stroke="#231F20" stroke-width="0.3" stroke-linecap="square" x1="144.15" y1="-12.75" x2="216.15" y2="-12.75"/>
					
						<line fill="none" stroke="#231F20" stroke-width="0.3" stroke-linecap="square" x1="144.15" y1="-14.449" x2="216.15" y2="-14.449"/>
					
						<line fill="none" stroke="#231F20" stroke-width="0.3" stroke-linecap="square" x1="144.15" y1="-16.15" x2="216.15" y2="-16.15"/>
					
						<line fill="none" stroke="#231F20" stroke-width="0.3" stroke-linecap="square" x1="144.15" y1="-17.851" x2="216.15" y2="-17.851"/>
					
						<line fill="none" stroke="#231F20" stroke-width="0.3" stroke-linecap="square" x1="144.15" y1="-19.55" x2="216.15" y2="-19.55"/>
					
						<line fill="none" stroke="#231F20" stroke-width="0.3" stroke-linecap="square" x1="144.15" y1="-21.25" x2="216.15" y2="-21.25"/>
					
						<line fill="none" stroke="#231F20" stroke-width="0.3" stroke-linecap="square" x1="144.15" y1="-22.949" x2="216.15" y2="-22.949"/>
					
						<line fill="none" stroke="#231F20" stroke-width="0.3" stroke-linecap="square" x1="144.15" y1="-24.65" x2="216.15" y2="-24.65"/>
					
						<line fill="none" stroke="#231F20" stroke-width="0.3" stroke-linecap="square" x1="144.15" y1="-26.349" x2="216.15" y2="-26.349"/>
					
						<line fill="none" stroke="#231F20" stroke-width="0.3" stroke-linecap="square" x1="144.15" y1="-28.049" x2="216.15" y2="-28.049"/>
					
						<line fill="none" stroke="#231F20" stroke-width="0.3" stroke-linecap="square" x1="144.15" y1="-29.749" x2="216.15" y2="-29.749"/>
					
						<line fill="none" stroke="#231F20" stroke-width="0.3" stroke-linecap="square" x1="144.15" y1="-31.449" x2="216.15" y2="-31.449"/>
					
						<line fill="none" stroke="#231F20" stroke-width="0.3" stroke-linecap="square" x1="144.15" y1="-33.15" x2="216.15" y2="-33.15"/>
					
						<line fill="none" stroke="#231F20" stroke-width="0.3" stroke-linecap="square" x1="144.15" y1="-34.849" x2="216.15" y2="-34.849"/>
					
						<line fill="none" stroke="#231F20" stroke-width="0.3" stroke-linecap="square" x1="144.15" y1="-36.549" x2="216.15" y2="-36.549"/>
					
						<line fill="none" stroke="#231F20" stroke-width="0.3" stroke-linecap="square" x1="144.15" y1="-38.249" x2="216.15" y2="-38.249"/>
					
						<line fill="none" stroke="#231F20" stroke-width="0.3" stroke-linecap="square" x1="144.15" y1="-39.949" x2="216.15" y2="-39.949"/>
					
						<line fill="none" stroke="#231F20" stroke-width="0.3" stroke-linecap="square" x1="144.15" y1="-41.65" x2="216.15" y2="-41.65"/>
					
						<line fill="none" stroke="#231F20" stroke-width="0.3" stroke-linecap="square" x1="144.15" y1="-43.349" x2="216.15" y2="-43.349"/>
					
						<line fill="none" stroke="#231F20" stroke-width="0.3" stroke-linecap="square" x1="144.15" y1="-45.049" x2="216.15" y2="-45.049"/>
					
						<line fill="none" stroke="#231F20" stroke-width="0.3" stroke-linecap="square" x1="144.15" y1="-46.749" x2="216.15" y2="-46.749"/>
					
						<line fill="none" stroke="#231F20" stroke-width="0.3" stroke-linecap="square" x1="144.15" y1="-48.449" x2="216.15" y2="-48.449"/>
					
						<line fill="none" stroke="#231F20" stroke-width="0.3" stroke-linecap="square" x1="144.15" y1="-50.15" x2="216.15" y2="-50.15"/>
					
						<line fill="none" stroke="#231F20" stroke-width="0.3" stroke-linecap="square" x1="144.15" y1="-51.849" x2="216.15" y2="-51.849"/>
					
						<line fill="none" stroke="#231F20" stroke-width="0.3" stroke-linecap="square" x1="144.15" y1="-53.549" x2="216.15" y2="-53.549"/>
					
						<line fill="none" stroke="#231F20" stroke-width="0.3" stroke-linecap="square" x1="144.15" y1="-55.249" x2="216.15" y2="-55.249"/>
					
						<line fill="none" stroke="#231F20" stroke-width="0.3" stroke-linecap="square" x1="144.15" y1="-56.949" x2="216.15" y2="-56.949"/>
					
						<line fill="none" stroke="#231F20" stroke-width="0.3" stroke-linecap="square" x1="144.15" y1="-58.65" x2="216.15" y2="-58.65"/>
					
						<line fill="none" stroke="#231F20" stroke-width="0.3" stroke-linecap="square" x1="144.15" y1="-60.349" x2="216.15" y2="-60.349"/>
					
						<line fill="none" stroke="#231F20" stroke-width="0.3" stroke-linecap="square" x1="144.15" y1="-62.049" x2="216.15" y2="-62.049"/>
					
						<line fill="none" stroke="#231F20" stroke-width="0.3" stroke-linecap="square" x1="144.15" y1="-63.749" x2="216.15" y2="-63.749"/>
					
						<line fill="none" stroke="#231F20" stroke-width="0.3" stroke-linecap="square" x1="144.15" y1="-65.449" x2="216.15" y2="-65.449"/>
					
						<line fill="none" stroke="#231F20" stroke-width="0.3" stroke-linecap="square" x1="144.15" y1="-67.15" x2="216.15" y2="-67.15"/>
					
						<line fill="none" stroke="#231F20" stroke-width="0.3" stroke-linecap="square" x1="144.15" y1="-68.849" x2="216.15" y2="-68.849"/>
					
						<line fill="none" stroke="#231F20" stroke-width="0.3" stroke-linecap="square" x1="144.15" y1="-70.549" x2="216.15" y2="-70.549"/>
					
						<line fill="none" stroke="#231F20" stroke-width="0.3" stroke-linecap="square" x1="144.15" y1="-72.249" x2="216.15" y2="-72.249"/>
					
						<line fill="none" stroke="#231F20" stroke-width="0.3" stroke-linecap="square" x1="144.15" y1="-73.949" x2="216.15" y2="-73.949"/>
				</g>
				<g>
					
						<line fill="none" stroke="#231F20" stroke-width="0.3" stroke-linecap="square" x1="72.15" y1="-0.851" x2="144.15" y2="-0.851"/>
					
						<line fill="none" stroke="#231F20" stroke-width="0.3" stroke-linecap="square" x1="72.15" y1="-2.55" x2="144.15" y2="-2.55"/>
					
						<line fill="none" stroke="#231F20" stroke-width="0.3" stroke-linecap="square" x1="72.15" y1="-4.25" x2="144.15" y2="-4.25"/>
					
						<line fill="none" stroke="#231F20" stroke-width="0.3" stroke-linecap="square" x1="72.15" y1="-5.949" x2="144.15" y2="-5.949"/>
					
						<line fill="none" stroke="#231F20" stroke-width="0.3" stroke-linecap="square" x1="72.15" y1="-7.65" x2="144.15" y2="-7.65"/>
					
						<line fill="none" stroke="#231F20" stroke-width="0.3" stroke-linecap="square" x1="72.15" y1="-9.351" x2="144.15" y2="-9.351"/>
					
						<line fill="none" stroke="#231F20" stroke-width="0.3" stroke-linecap="square" x1="72.15" y1="-11.05" x2="144.15" y2="-11.05"/>
					
						<line fill="none" stroke="#231F20" stroke-width="0.3" stroke-linecap="square" x1="72.15" y1="-12.75" x2="144.15" y2="-12.75"/>
					
						<line fill="none" stroke="#231F20" stroke-width="0.3" stroke-linecap="square" x1="72.15" y1="-14.449" x2="144.15" y2="-14.449"/>
					
						<line fill="none" stroke="#231F20" stroke-width="0.3" stroke-linecap="square" x1="72.15" y1="-16.15" x2="144.15" y2="-16.15"/>
					
						<line fill="none" stroke="#231F20" stroke-width="0.3" stroke-linecap="square" x1="72.15" y1="-17.851" x2="144.15" y2="-17.851"/>
					
						<line fill="none" stroke="#231F20" stroke-width="0.3" stroke-linecap="square" x1="72.15" y1="-19.55" x2="144.15" y2="-19.55"/>
					
						<line fill="none" stroke="#231F20" stroke-width="0.3" stroke-linecap="square" x1="72.15" y1="-21.25" x2="144.15" y2="-21.25"/>
					
						<line fill="none" stroke="#231F20" stroke-width="0.3" stroke-linecap="square" x1="72.15" y1="-22.949" x2="144.15" y2="-22.949"/>
					
						<line fill="none" stroke="#231F20" stroke-width="0.3" stroke-linecap="square" x1="72.15" y1="-24.65" x2="144.15" y2="-24.65"/>
					
						<line fill="none" stroke="#231F20" stroke-width="0.3" stroke-linecap="square" x1="72.15" y1="-26.349" x2="144.15" y2="-26.349"/>
					
						<line fill="none" stroke="#231F20" stroke-width="0.3" stroke-linecap="square" x1="72.15" y1="-28.049" x2="144.15" y2="-28.049"/>
					
						<line fill="none" stroke="#231F20" stroke-width="0.3" stroke-linecap="square" x1="72.15" y1="-29.749" x2="144.15" y2="-29.749"/>
					
						<line fill="none" stroke="#231F20" stroke-width="0.3" stroke-linecap="square" x1="72.15" y1="-31.449" x2="144.15" y2="-31.449"/>
					
						<line fill="none" stroke="#231F20" stroke-width="0.3" stroke-linecap="square" x1="72.15" y1="-33.15" x2="144.15" y2="-33.15"/>
					
						<line fill="none" stroke="#231F20" stroke-width="0.3" stroke-linecap="square" x1="72.15" y1="-34.849" x2="144.15" y2="-34.849"/>
					
						<line fill="none" stroke="#231F20" stroke-width="0.3" stroke-linecap="square" x1="72.15" y1="-36.549" x2="144.15" y2="-36.549"/>
					
						<line fill="none" stroke="#231F20" stroke-width="0.3" stroke-linecap="square" x1="72.15" y1="-38.249" x2="144.15" y2="-38.249"/>
					
						<line fill="none" stroke="#231F20" stroke-width="0.3" stroke-linecap="square" x1="72.15" y1="-39.949" x2="144.15" y2="-39.949"/>
					
						<line fill="none" stroke="#231F20" stroke-width="0.3" stroke-linecap="square" x1="72.15" y1="-41.65" x2="144.15" y2="-41.65"/>
					
						<line fill="none" stroke="#231F20" stroke-width="0.3" stroke-linecap="square" x1="72.15" y1="-43.349" x2="144.15" y2="-43.349"/>
					
						<line fill="none" stroke="#231F20" stroke-width="0.3" stroke-linecap="square" x1="72.15" y1="-45.049" x2="144.15" y2="-45.049"/>
					
						<line fill="none" stroke="#231F20" stroke-width="0.3" stroke-linecap="square" x1="72.15" y1="-46.749" x2="144.15" y2="-46.749"/>
					
						<line fill="none" stroke="#231F20" stroke-width="0.3" stroke-linecap="square" x1="72.15" y1="-48.449" x2="144.15" y2="-48.449"/>
					
						<line fill="none" stroke="#231F20" stroke-width="0.3" stroke-linecap="square" x1="72.15" y1="-50.15" x2="144.15" y2="-50.15"/>
					
						<line fill="none" stroke="#231F20" stroke-width="0.3" stroke-linecap="square" x1="72.15" y1="-51.849" x2="144.15" y2="-51.849"/>
					
						<line fill="none" stroke="#231F20" stroke-width="0.3" stroke-linecap="square" x1="72.15" y1="-53.549" x2="144.15" y2="-53.549"/>
					
						<line fill="none" stroke="#231F20" stroke-width="0.3" stroke-linecap="square" x1="72.15" y1="-55.249" x2="144.15" y2="-55.249"/>
					
						<line fill="none" stroke="#231F20" stroke-width="0.3" stroke-linecap="square" x1="72.15" y1="-56.949" x2="144.15" y2="-56.949"/>
					
						<line fill="none" stroke="#231F20" stroke-width="0.3" stroke-linecap="square" x1="72.15" y1="-58.65" x2="144.15" y2="-58.65"/>
					
						<line fill="none" stroke="#231F20" stroke-width="0.3" stroke-linecap="square" x1="72.15" y1="-60.349" x2="144.15" y2="-60.349"/>
					
						<line fill="none" stroke="#231F20" stroke-width="0.3" stroke-linecap="square" x1="72.15" y1="-62.049" x2="144.15" y2="-62.049"/>
					
						<line fill="none" stroke="#231F20" stroke-width="0.3" stroke-linecap="square" x1="72.15" y1="-63.749" x2="144.15" y2="-63.749"/>
					
						<line fill="none" stroke="#231F20" stroke-width="0.3" stroke-linecap="square" x1="72.15" y1="-65.449" x2="144.15" y2="-65.449"/>
					
						<line fill="none" stroke="#231F20" stroke-width="0.3" stroke-linecap="square" x1="72.15" y1="-67.15" x2="144.15" y2="-67.15"/>
					
						<line fill="none" stroke="#231F20" stroke-width="0.3" stroke-linecap="square" x1="72.15" y1="-68.849" x2="144.15" y2="-68.849"/>
					
						<line fill="none" stroke="#231F20" stroke-width="0.3" stroke-linecap="square" x1="72.15" y1="-70.549" x2="144.15" y2="-70.549"/>
					
						<line fill="none" stroke="#231F20" stroke-width="0.3" stroke-linecap="square" x1="72.15" y1="-72.249" x2="144.15" y2="-72.249"/>
					
						<line fill="none" stroke="#231F20" stroke-width="0.3" stroke-linecap="square" x1="72.15" y1="-73.949" x2="144.15" y2="-73.949"/>
				</g>
				<g>
					
						<line fill="none" stroke="#231F20" stroke-width="0.3" stroke-linecap="square" x1="0.15" y1="-0.851" x2="72.15" y2="-0.851"/>
					<line fill="none" stroke="#231F20" stroke-width="0.3" stroke-linecap="square" x1="0.15" y1="-2.55" x2="72.15" y2="-2.55"/>
					<line fill="none" stroke="#231F20" stroke-width="0.3" stroke-linecap="square" x1="0.15" y1="-4.25" x2="72.15" y2="-4.25"/>
					
						<line fill="none" stroke="#231F20" stroke-width="0.3" stroke-linecap="square" x1="0.15" y1="-5.949" x2="72.15" y2="-5.949"/>
					<line fill="none" stroke="#231F20" stroke-width="0.3" stroke-linecap="square" x1="0.15" y1="-7.65" x2="72.15" y2="-7.65"/>
					
						<line fill="none" stroke="#231F20" stroke-width="0.3" stroke-linecap="square" x1="0.15" y1="-9.351" x2="72.15" y2="-9.351"/>
					
						<line fill="none" stroke="#231F20" stroke-width="0.3" stroke-linecap="square" x1="0.15" y1="-11.05" x2="72.15" y2="-11.05"/>
					
						<line fill="none" stroke="#231F20" stroke-width="0.3" stroke-linecap="square" x1="0.15" y1="-12.75" x2="72.15" y2="-12.75"/>
					
						<line fill="none" stroke="#231F20" stroke-width="0.3" stroke-linecap="square" x1="0.15" y1="-14.449" x2="72.15" y2="-14.449"/>
					
						<line fill="none" stroke="#231F20" stroke-width="0.3" stroke-linecap="square" x1="0.15" y1="-16.15" x2="72.15" y2="-16.15"/>
					
						<line fill="none" stroke="#231F20" stroke-width="0.3" stroke-linecap="square" x1="0.15" y1="-17.851" x2="72.15" y2="-17.851"/>
					
						<line fill="none" stroke="#231F20" stroke-width="0.3" stroke-linecap="square" x1="0.15" y1="-19.55" x2="72.15" y2="-19.55"/>
					
						<line fill="none" stroke="#231F20" stroke-width="0.3" stroke-linecap="square" x1="0.15" y1="-21.25" x2="72.15" y2="-21.25"/>
					
						<line fill="none" stroke="#231F20" stroke-width="0.3" stroke-linecap="square" x1="0.15" y1="-22.949" x2="72.15" y2="-22.949"/>
					
						<line fill="none" stroke="#231F20" stroke-width="0.3" stroke-linecap="square" x1="0.15" y1="-24.65" x2="72.15" y2="-24.65"/>
					
						<line fill="none" stroke="#231F20" stroke-width="0.3" stroke-linecap="square" x1="0.15" y1="-26.349" x2="72.15" y2="-26.349"/>
					
						<line fill="none" stroke="#231F20" stroke-width="0.3" stroke-linecap="square" x1="0.15" y1="-28.049" x2="72.15" y2="-28.049"/>
					
						<line fill="none" stroke="#231F20" stroke-width="0.3" stroke-linecap="square" x1="0.15" y1="-29.749" x2="72.15" y2="-29.749"/>
					
						<line fill="none" stroke="#231F20" stroke-width="0.3" stroke-linecap="square" x1="0.15" y1="-31.449" x2="72.15" y2="-31.449"/>
					
						<line fill="none" stroke="#231F20" stroke-width="0.3" stroke-linecap="square" x1="0.15" y1="-33.15" x2="72.15" y2="-33.15"/>
					
						<line fill="none" stroke="#231F20" stroke-width="0.3" stroke-linecap="square" x1="0.15" y1="-34.849" x2="72.15" y2="-34.849"/>
					
						<line fill="none" stroke="#231F20" stroke-width="0.3" stroke-linecap="square" x1="0.15" y1="-36.549" x2="72.15" y2="-36.549"/>
					
						<line fill="none" stroke="#231F20" stroke-width="0.3" stroke-linecap="square" x1="0.15" y1="-38.249" x2="72.15" y2="-38.249"/>
					
						<line fill="none" stroke="#231F20" stroke-width="0.3" stroke-linecap="square" x1="0.15" y1="-39.949" x2="72.15" y2="-39.949"/>
					
						<line fill="none" stroke="#231F20" stroke-width="0.3" stroke-linecap="square" x1="0.15" y1="-41.65" x2="72.15" y2="-41.65"/>
					
						<line fill="none" stroke="#231F20" stroke-width="0.3" stroke-linecap="square" x1="0.15" y1="-43.349" x2="72.15" y2="-43.349"/>
					
						<line fill="none" stroke="#231F20" stroke-width="0.3" stroke-linecap="square" x1="0.15" y1="-45.049" x2="72.15" y2="-45.049"/>
					
						<line fill="none" stroke="#231F20" stroke-width="0.3" stroke-linecap="square" x1="0.15" y1="-46.749" x2="72.15" y2="-46.749"/>
					
						<line fill="none" stroke="#231F20" stroke-width="0.3" stroke-linecap="square" x1="0.15" y1="-48.449" x2="72.15" y2="-48.449"/>
					
						<line fill="none" stroke="#231F20" stroke-width="0.3" stroke-linecap="square" x1="0.15" y1="-50.15" x2="72.15" y2="-50.15"/>
					
						<line fill="none" stroke="#231F20" stroke-width="0.3" stroke-linecap="square" x1="0.15" y1="-51.849" x2="72.15" y2="-51.849"/>
					
						<line fill="none" stroke="#231F20" stroke-width="0.3" stroke-linecap="square" x1="0.15" y1="-53.549" x2="72.15" y2="-53.549"/>
					
						<line fill="none" stroke="#231F20" stroke-width="0.3" stroke-linecap="square" x1="0.15" y1="-55.249" x2="72.15" y2="-55.249"/>
					
						<line fill="none" stroke="#231F20" stroke-width="0.3" stroke-linecap="square" x1="0.15" y1="-56.949" x2="72.15" y2="-56.949"/>
					
						<line fill="none" stroke="#231F20" stroke-width="0.3" stroke-linecap="square" x1="0.15" y1="-58.65" x2="72.15" y2="-58.65"/>
					
						<line fill="none" stroke="#231F20" stroke-width="0.3" stroke-linecap="square" x1="0.15" y1="-60.349" x2="72.15" y2="-60.349"/>
					
						<line fill="none" stroke="#231F20" stroke-width="0.3" stroke-linecap="square" x1="0.15" y1="-62.049" x2="72.15" y2="-62.049"/>
					
						<line fill="none" stroke="#231F20" stroke-width="0.3" stroke-linecap="square" x1="0.15" y1="-63.749" x2="72.15" y2="-63.749"/>
					
						<line fill="none" stroke="#231F20" stroke-width="0.3" stroke-linecap="square" x1="0.15" y1="-65.449" x2="72.15" y2="-65.449"/>
					
						<line fill="none" stroke="#231F20" stroke-width="0.3" stroke-linecap="square" x1="0.15" y1="-67.15" x2="72.15" y2="-67.15"/>
					
						<line fill="none" stroke="#231F20" stroke-width="0.3" stroke-linecap="square" x1="0.15" y1="-68.849" x2="72.15" y2="-68.849"/>
					
						<line fill="none" stroke="#231F20" stroke-width="0.3" stroke-linecap="square" x1="0.15" y1="-70.549" x2="72.15" y2="-70.549"/>
					
						<line fill="none" stroke="#231F20" stroke-width="0.3" stroke-linecap="square" x1="0.15" y1="-72.249" x2="72.15" y2="-72.249"/>
					
						<line fill="none" stroke="#231F20" stroke-width="0.3" stroke-linecap="square" x1="0.15" y1="-73.949" x2="72.15" y2="-73.949"/>
				</g>
			</g>
		</g>
	</g>
</pattern>
<pattern  id="SVGID_1_" xlink:href="#SVGID_4_" patternTransform="matrix(2 0 0 2 22291.0898 41577.875)">
</pattern>
<pattern  id="SVGID_2_" xlink:href="#SVGID_5_" patternTransform="matrix(2 0 0 2 22327.793 41550.0859)">
</pattern>
<rect x="54.625" y="103.376" opacity="0.4" fill="url(#SVGID_1_)" stroke="url(#SVGID_2_)" stroke-width="2" stroke-miterlimit="10" enable-background="new    " width="316" height="202"/>
<rect x="53.625" y="12.376" fill="none" stroke="#000000" stroke-width="4" stroke-miterlimit="10" width="318" height="372"/>
<rect x="53.625" y="104.376" fill="none" stroke="#000000" stroke-width="4" stroke-miterlimit="10" width="318" height="48"/>
<rect x="53.625" y="104.376" fill="#999999" stroke="#000000" stroke-width="4" stroke-miterlimit="10" width="24" height="48"/>
<rect x="125.625" y="104.376" fill="#999999" stroke="#000000" stroke-width="4" stroke-miterlimit="10" width="24" height="48"/>
<text transform="matrix(1 0 0 1 85.5752 146.9004)" font-family="'TimesNewRomanPSMT'" font-size="56.6929">A</text>
<rect x="53.625" y="256.376" fill="none" stroke="#000000" stroke-width="4" stroke-miterlimit="10" width="318" height="48"/>
<rect x="53.625" y="256.376" fill="#999999" stroke="#000000" stroke-width="4" stroke-miterlimit="10" width="24" height="48"/>
<rect x="125.625" y="256.376" fill="#999999" stroke="#000000" stroke-width="4" stroke-miterlimit="10" width="24" height="48"/>
<text transform="matrix(1 0 0 1 85.5752 297.6504)" font-family="'TimesNewRomanPSMT'" font-size="56.6929">A</text>
<text transform="matrix(1 0 0 1 23.6851 105.75)" font-family="'TimesNewRomanPSMT'" font-size="22.6772">y</text>
<text transform="matrix(0.583 0 0 0.583 35.0234 113.3018)" font-family="'TimesNewRomanPSMT'" font-size="22.6772">1</text>
<text transform="matrix(1 0 0 1 12.5664 131.082)" font-family="'TimesNewRomanPSMT'" font-size="22.6772">y</text>
<text transform="matrix(0.583 0 0 0.583 23.9048 138.6338)" font-family="'TimesNewRomanPSMT'" font-size="22.6772">1m</text>
<text transform="matrix(1 0 0 1 23.166 261.082)" font-family="'TimesNewRomanPSMT'" font-size="22.6772">y</text>
<text transform="matrix(0.583 0 0 0.583 34.5044 268.6338)" font-family="'TimesNewRomanPSMT'" font-size="22.6772">2</text>
<circle stroke="#000000" stroke-width="4.252" stroke-miterlimit="10" cx="52.833" cy="103.083" r="4"/>
<circle stroke="#000000" stroke-width="4.252" stroke-miterlimit="10" cx="52.833" cy="127.083" r="4"/>
<circle stroke="#000000" stroke-width="4.252" stroke-miterlimit="10" cx="52.833" cy="257.083" r="4"/>
<g>
	<g>
		
			<line fill="none" stroke="#000000" stroke-width="2" stroke-miterlimit="10" x1="382.625" y1="107.376" x2="382.625" y2="148.376"/>
		<g>
			<polygon points="375.456,113.294 376.718,114.469 382.499,108.249 388.281,114.469 389.542,113.294 382.499,105.72 			"/>
		</g>
		<g>
			<polygon points="375.456,142.521 376.718,141.346 382.499,147.566 388.281,141.346 389.542,142.521 382.499,150.095 			"/>
		</g>
	</g>
</g>
<path fill="none" stroke="#000000" stroke-width="2" stroke-miterlimit="10" d="M382,113.095"/>
<g>
	<g>
		
			<line fill="none" stroke="#000000" stroke-width="2" stroke-miterlimit="10" x1="382.625" y1="258.376" x2="382.625" y2="302.376"/>
		<g>
			<polygon points="375.174,263.974 376.485,265.194 382.498,258.725 388.513,265.194 389.824,263.974 382.498,256.095 			"/>
		</g>
		<g>
			<polygon points="375.174,296.217 376.485,294.996 382.498,301.465 388.513,294.996 389.824,296.217 382.498,304.095 			"/>
		</g>
	</g>
</g>
<line fill="none" stroke="#000000" stroke-width="2" stroke-miterlimit="10" x1="371.5" y1="105.095" x2="455.5" y2="105.72"/>
<line fill="none" stroke="#000000" stroke-width="2" stroke-miterlimit="10" x1="371.625" y1="151.376" x2="419.625" y2="151.376"/>
<line fill="none" stroke="#000000" stroke-width="2" stroke-miterlimit="10" x1="371.625" y1="257.376" x2="391.625" y2="257.376"/>
<line fill="none" stroke="#000000" stroke-width="2" stroke-miterlimit="10" x1="371.625" y1="305.376" x2="455.625" y2="305.376"/>
<g>
	<g>
		
			<line fill="none" stroke="#000000" stroke-width="2" stroke-miterlimit="10" x1="413.625" y1="154.376" x2="413.625" y2="302.376"/>
		<g>
			<polygon points="405.385,160.822 406.838,162.175 413.498,155.009 420.16,162.175 421.612,160.822 413.498,152.095 			"/>
		</g>
		<g>
			<polygon points="405.385,295.369 406.838,294.015 413.498,301.182 420.16,294.015 421.612,295.369 413.498,304.095 			"/>
		</g>
	</g>
</g>
<g>
	<g>
		
			<line fill="none" stroke="#000000" stroke-width="2" stroke-miterlimit="10" x1="446.625" y1="108.376" x2="446.625" y2="301.376"/>
		<g>
			<polygon points="437.229,115.689 438.889,117.236 446.498,109.048 454.108,117.236 455.769,115.689 446.498,105.72 			"/>
		</g>
		<g>
			<polygon points="437.229,294.126 438.889,292.58 446.498,300.767 454.108,292.58 455.769,294.126 446.498,304.095 			"/>
		</g>
	</g>
</g>
<text transform="matrix(1 0 0 1 384 135.082)" font-family="'TimesNewRomanPSMT'" font-size="22.6772">h</text>
<text transform="matrix(0.583 0 0 0.583 395.3389 142.6338)" font-family="'TimesNewRomanPSMT'" font-size="22.6772">1</text>
<line fill="none" stroke="#000000" stroke-width="2" stroke-miterlimit="10" x1="373.625" y1="11.376" x2="491.625" y2="11.376"/>
<line fill="none" stroke="#000000" stroke-width="2" stroke-miterlimit="10" x1="371.625" y1="383.376" x2="491.625" y2="383.376"/>
<g>
	<g>
		
			<line fill="none" stroke="#000000" stroke-width="2" stroke-miterlimit="10" x1="481.625" y1="14.376" x2="481.625" y2="380.376"/>
		<g>
			<polygon points="473.233,21.522 474.804,22.984 481.998,15.242 489.194,22.984 490.764,21.522 481.998,12.095 			"/>
		</g>
		<g>
			<polygon points="473.233,372.835 474.804,371.373 481.998,379.115 489.194,371.373 490.764,372.835 481.998,382.262 			"/>
		</g>
	</g>
</g>
<text transform="matrix(1 0 0 1 487.333 218.0957)" font-family="'TimesNewRomanPSMT'" font-size="22.6772">h</text>
<text transform="matrix(0.583 0 0 0.583 498.6709 225.6475)" font-family="'TimesNewRomanPSMT'" font-size="22.6772">0</text>
<text transform="matrix(1 0 0 1 417.833 218.0957)" font-family="'TimesNewRomanPSMT'" font-size="22.6772">h</text>
<text transform="matrix(0.583 0 0 0.583 429.1709 225.6475)" font-family="'TimesNewRomanPSMT'" font-size="22.6772">c</text>
<text transform="matrix(1 0 0 1 452.333 218.0957)" font-family="'TimesNewRomanPSMT'" font-size="22.6772">h</text>
<text transform="matrix(0.583 0 0 0.583 463.6709 225.6475)" font-family="'TimesNewRomanPSMT'" font-size="22.6772">h</text>
<text transform="matrix(1 0 0 1 384 286.082)" font-family="'TimesNewRomanPSMT'" font-size="22.6772">h</text>
<text transform="matrix(0.583 0 0 0.583 395.3389 293.6338)" font-family="'TimesNewRomanPSMT'" font-size="22.6772">2</text>
<circle stroke="#000000" stroke-width="4.252" stroke-miterlimit="10" cx="52.833" cy="13.083" r="4"/>
<text transform="matrix(1 0 0 1 23.1396 19.082)" font-family="'TimesNewRomanPSMT'" font-size="22.6772">y</text>
<text transform="matrix(0.583 0 0 0.583 34.478 26.6338)" font-family="'TimesNewRomanPSMT'" font-size="22.6772">0</text>
<pattern  id="SVGID_3_" xlink:href="#SVGID_6_" patternTransform="matrix(2 0 0 2 22328.291 41211.6133)">
</pattern>
<rect x="54.625" y="153.376" opacity="0.4" fill="url(#SVGID_3_)" stroke="#000000" stroke-width="2" stroke-miterlimit="10" enable-background="new    " width="316" height="152"/>
<text transform="matrix(1 0 0 1 256.3838 35.0957)" font-family="'TimesNewRomanPSMT'" font-size="22.6772">visible rect</text>
<text transform="matrix(1 0 0 1 227.2046 174.0957)" font-family="'TimesNewRomanPSMT'" font-size="22.6772">folding region</text>
<text transform="matrix(1 0 0 1 188.3936 126.0957)" font-family="'TimesNewRomanPSMT'" font-size="22.6772">highlighted region</text>
<text transform="matrix(1 0 0 1 59.6147 291.6504)" font-family="'TimesNewRomanPSMT'" font-size="22.6772">i</text>
<text transform="matrix(0.583 0 0 0.583 65.915 299.2021)" font-family="'TimesNewRomanPSMT'" font-size="22.6772">2</text>
<text transform="matrix(1 0 0 1 59.874 140.9004)" font-family="'TimesNewRomanPSMT'" font-size="22.6772">i</text>
<text transform="matrix(0.583 0 0 0.583 66.1743 148.4521)" font-family="'TimesNewRomanPSMT'" font-size="22.6772">1</text>
<text transform="matrix(1 0 0 1 6.917 408.0557)" font-family="'TimesNewRomanPSMT'" font-size="22.6772">i</text>
<text transform="matrix(0.583 0 0 0.583 13.2173 415.6064)" font-family="'TimesNewRomanPSMT'" font-size="22.6772">1</text>
<text transform="matrix(1 0 0 1 19.8276 408.0557)" font-family="'TimesNewRomanPSMT'" font-size="22.6772">  is the text iter at the beginning of the line </text>
<text transform="matrix(1 0 0 1 6.917 435.2686)" font-family="'TimesNewRomanPSMT'" font-size="22.6772">containing the token starting the folding region.</text>
<text transform="matrix(1 0 0 1 6.917 462.4814)" font-family="'TimesNewRomanPSMT'" font-size="22.6772">i</text>
<text transform="matrix(0.583 0 0 0.583 13.2173 470.0322)" font-family="'TimesNewRomanPSMT'" font-size="22.6772">2</text>
<text transform="matrix(1 0 0 1 19.8276 462.4814)" font-family="'TimesNewRomanPSMT'" font-size="22.6772">  is the text iter at the beginning of the line</text>
<text transform="matrix(1 0 0 1 6.917 489.6934)" font-family="'TimesNewRomanPSMT'" font-size="22.6772">containing the token that ends the folding region.</text>
<text transform="matrix(1 0 0 1 6.917 516.9063)" font-family="'TimesNewRomanPSMT'" font-size="22.6772">i</text>
<text transform="matrix(0.583 0 0 0.583 13.2173 524.458)" font-family="'TimesNewRomanPSMT'" font-size="22.6772">c</text>
<text transform="matrix(1 0 0 1 19.0854 516.9063)" font-family="'TimesNewRomanPSMT'" font-size="22.6772"> is the text iter at the beginning of the first line</text>
<text transform="matrix(1 0 0 1 6.917 544.1182)" font-family="'TimesNewRomanPSMT'" font-size="22.6772">of the folding region.</text>
<text transform="matrix(1 0 0 1 6.917 571.3311)" font-family="'TimesNewRomanPSMT'" font-size="22.6772">y</text>
<text transform="matrix(0.583 0 0 0.583 18.2554 578.8818)" font-family="'TimesNewRomanPSMT'" font-size="22.6772">1</text>
<text transform="matrix(1 0 0 1 24.8662 571.3311)" font-family="'TimesNewRomanPSMT'" font-size="22.6772">, y</text>
<text transform="matrix(0.583 0 0 0.583 47.543 578.8818)" font-family="'TimesNewRomanPSMT'" font-size="22.6772">1m</text>
<text transform="matrix(1 0 0 1 64.437 571.3311)" font-family="'TimesNewRomanPSMT'" font-size="22.6772"> and y</text>
<text transform="matrix(0.583 0 0 0.583 119.8564 578.8818)" font-family="'TimesNewRomanPSMT'" font-size="22.6772">2</text>
<text transform="matrix(1 0 0 1 126.4668 571.3311)" font-family="'TimesNewRomanPSMT'" font-size="22.6772"> are relative to y</text>
<text transform="matrix(0.583 0 0 0.583 273.791 578.8818)" font-family="'TimesNewRomanPSMT'" font-size="22.6772">0</text>
<text transform="matrix(1 0 0 1 280.4014 571.3311)" font-family="'TimesNewRomanPSMT'" font-size="22.6772">.</text>
<rect x="53.625" y="152.376" fill="none" stroke="#000000" stroke-width="4" stroke-miterlimit="10" width="318" height="48"/>
<rect x="53.625" y="152.376" fill="#999999" stroke="#000000" stroke-width="4" stroke-miterlimit="10" width="24" height="48"/>
<rect x="125.625" y="152.376" fill="#999999" stroke="#000000" stroke-width="4" stroke-miterlimit="10" width="24" height="48"/>
<text transform="matrix(1 0 0 1 85.5752 194.9004)" font-family="'TimesNewRomanPSMT'" font-size="56.6929">A</text>
<text transform="matrix(1 0 0 1 60.0181 186.9004)" font-family="'TimesNewRomanPSMT'" font-size="22.6772">i</text>
<text transform="matrix(0.583 0 0 0.583 66.3184 194.4521)" font-family="'TimesNewRomanPSMT'" font-size="22.6772">c</text>
</svg>
