<?xml version="1.0" encoding="utf-8"?>
<!-- Generator: Adobe Illustrator 16.0.0, SVG Export Plug-In . SVG Version: 6.00 Build 0)  -->
<!DOCTYPE svg PUBLIC "-//W3C//DTD SVG 1.1//EN" "http://www.w3.org/Graphics/SVG/1.1/DTD/svg11.dtd">
<svg version="1.1" id="Layer_1" xmlns="http://www.w3.org/2000/svg" xmlns:xlink="http://www.w3.org/1999/xlink" x="0px" y="0px"
	 width="796px" height="796px" viewBox="7.4 -6 796 796" enable-background="new 7.4 -6 796 796" xml:space="preserve">
<g>
	<polygon fill="#310080" points="45.401,752.127 45.401,31.872 765.4,31.872 765.4,752.127 	"/>
	<polygon fill="#FFFFFF" points="706.607,692.836 553.641,660.756 548.751,655.665 543.09,643.368 538.773,636.553 509.898,621.307 
		507.129,616.059 529.514,448.854 533.255,444.544 583.829,425.813 648.107,181.218 648.922,181.332 600.093,420.016 
		645.408,403.28 691.318,125.054 560.331,134.396 550.561,165.799 572.877,150.965 571.956,244.419 556.221,185.919 
		538.287,253.587 418.359,90.828 707.355,90.828 	"/>
	<polygon fill="#FFFFFF" points="231.218,349.372 316.762,435.967 386.165,391.677 430.775,680.359 419.378,690.732 
		273.622,691.805 267.446,645.064 264.811,642.348 234.401,631.814 229.847,625.33 230.112,349.724 	"/>
	<polyline fill="#FFFFFF" points="232.303,141.629 106.336,278.651 106.731,90.828 385.043,90.828 323.62,182.573 273.036,142.22 	
		"/>
	<polygon fill="#FFFFFF" points="185.205,673.182 131.28,482.366 126.965,693.99 104.541,693.99 107.208,350.841 199.643,680.148 	
		"/>
	<polyline fill="#FFFFFF" points="197.246,275.116 212.243,277.805 173.375,370.847 144.422,359.434 194.98,288.643 	"/>
	<polygon fill="#FFFFFF" points="485.723,662.811 464.236,449.684 473.41,465.016 	"/>
	<polygon fill="#FFFFFF" points="399.947,97.041 422.056,110.454 376.715,123.873 	"/>
	<polygon fill="#FFFFFF" points="173.375,690.737 160.243,690.737 160.243,676.68 	"/>
	<polygon fill="#FFFFFF" points="221.828,678.518 233.571,692.077 224.035,692.575 	"/>
	<polygon fill="#FFFFFF" points="450.802,675.134 464.236,692.299 452.189,692.299 	"/>
	<polygon fill="#FFFFFF" points="532.447,693.99 518.335,693.99 518.335,678.518 	"/>
	<polygon fill="#310080" points="241.01,132.103 250.336,123.873 257.074,127.988 250.336,130.351 	"/>
</g>
</svg>
