<?xml version="1.0" encoding="utf-8"?>
<!-- Generator: Adobe Illustrator 16.0.0, SVG Export Plug-In . SVG Version: 6.00 Build 0)  -->
<!DOCTYPE svg PUBLIC "-//W3C//DTD SVG 1.1//EN" "http://www.w3.org/Graphics/SVG/1.1/DTD/svg11.dtd">
<svg version="1.1" id="Layer_1" xmlns="http://www.w3.org/2000/svg" xmlns:xlink="http://www.w3.org/1999/xlink" x="0px" y="0px"
	 width="807.875px" height="807.875px" viewBox="0 0 807.875 807.875" enable-background="new 0 0 807.875 807.875"
	 xml:space="preserve">
<rect fill="#F5F5EE" width="807.875" height="807.875"/>
<rect x="36.352" y="35.843" fill="#1741A4" width="732.359" height="732.189"/>
<polygon fill="#E8E3DB" points="704.163,710.331 101.711,711.14 101.711,100.843 704.163,100.843 "/>
<g>
	<g>
		<g>
			<path fill="#1741A4" d="M101.711,359.735v-61.895l119.746-157.983l98.916,49.766l82.159-124.781l130.377,195.609l18.025-72.571
				l26.836,63.293l-0.146-84.119l-27.438,0.048l7.919-25.521l126.636-16.938l-43.167,288.461l-38.886,12.501l43.906-239.229
				l-2.692,0.164l-64.74,245.543l-54.876,18.75l-16.848,190.508l29.455,11.57l10.545,25.43l156.726,24.62v58.405H101.711v-57.604
				l20.227-0.289l6.341-198.296l50.412,178.008l16.25,5.861L101.711,359.735L101.711,359.735z M263.506,670.901l4.252,28.108
				l149.646-2.928l11.532-16.741l-45.984-280.673l-70.716,42.636l-89.033-85.021l-0.766,289.061L263.506,670.901z M125.437,343.843
				l11.161,17.249l84.839-100.249l-40,10L125.437,343.843z M463.786,458.553l6.229,188.563l6.559,1.043l-5.803-174.772
				L463.786,458.553z M422.437,129.843l-18.5-29l-19.152,29.865 M447.437,673.938v30h19.5L447.437,673.938z M511.482,674.444
				l0.454,30.492h22L511.482,674.444z M149.271,703.604l18.167,0.231l-18.167-20.731V703.604z M238.268,703.925l-22.664-22.653
				l0.203,22.565L238.268,703.925z"/>
		</g>
	</g>
</g>
<text transform="matrix(1 0 0 1 192.7837 728.2676)" enable-background="new    "><tspan x="0" y="0" fill="#E8E3DB" font-family="'LithosPro-Regular'" font-size="31" letter-spacing="4">strain out the gnat</tspan><tspan x="-41.85" y="31" fill="#E8E3DB" font-family="'LithosPro-Regular'" font-size="31" letter-spacing="4">and swallow the camel!</tspan></text>
</svg>
