<?xml version="1.0" encoding="utf-8"?>
<!-- Generator: Adobe Illustrator 16.0.0, SVG Export Plug-In . SVG Version: 6.00 Build 0)  -->
<!DOCTYPE svg PUBLIC "-//W3C//DTD SVG 1.1//EN" "http://www.w3.org/Graphics/SVG/1.1/DTD/svg11.dtd">
<svg version="1.1" id="Layer_1" xmlns="http://www.w3.org/2000/svg" xmlns:xlink="http://www.w3.org/1999/xlink" x="0px" y="0px"
	 width="16px" height="15.167px" viewBox="0 0 16 15.167" enable-background="new 0 0 16 15.167" xml:space="preserve">
<g>
	<path fill="#FFFFFF" d="M8.715,7.768c0,2.489,0,4.937,0,7.399c2.415-0.461,4.824-0.92,7.285-1.39
		c-0.814-0.672-1.596-1.315-2.366-1.952c1.734-2.629,1.933-5.317,0.251-8.007c-1.236-1.978-3.113-2.98-5.445-3.184
		C8.433,0.701,8.425,0.748,8.425,0.794C8.433,1.709,8.442,2.623,8.45,3.537c0.001,0.096-0.004,0.168,0.134,0.188
		c1.721,0.248,3.025,1.518,3.325,3.227c0.17,0.966,0.007,1.867-0.556,2.682c-0.041,0.06-0.088,0.115-0.146,0.188
		C10.373,9.134,9.561,8.464,8.715,7.768z M7.55,11.492c-1.808-0.312-2.987-1.318-3.424-3.104C3.852,7.265,4.143,6.063,4.8,5.356
		c0.813,0.672,1.63,1.345,2.468,2.037c0-2.477,0-4.919,0-7.393C4.846,0.464,2.439,0.926,0,1.394C0.813,2.065,1.598,2.713,2.366,3.35
		C0.68,5.884,0.441,8.498,1.98,11.142c1.223,2.096,3.141,3.174,5.569,3.396C7.55,13.5,7.55,12.5,7.55,11.492z"/>
	<path d="M11.354,9.634c0.563-0.815,0.726-1.716,0.556-2.682c-0.3-1.709-1.604-2.98-3.325-3.227C8.446,3.705,8.45,3.634,8.45,3.537
		C8.442,2.623,8.433,1.708,8.425,0.794C8.424,0.748,8.433,0.701,8.44,0.635c2.332,0.204,4.208,1.206,5.445,3.184
		c1.682,2.69,1.483,5.378-0.251,8.007c0.771,0.637,1.552,1.28,2.366,1.952c-2.461,0.47-4.87,0.929-7.285,1.39c0-2.463,0-4.91,0-7.4
		c0.846,0.697,1.658,1.367,2.493,2.055C11.266,9.75,11.313,9.694,11.354,9.634z"/>
	<path d="M1.98,11.141C0.441,8.498,0.682,5.884,2.367,3.349C1.598,2.713,0.813,2.065,0,1.394C2.439,0.926,4.846,0.464,7.268,0
		c0,2.474,0,4.915,0,7.393C6.43,6.7,5.613,6.027,4.8,5.356C4.143,6.063,3.852,7.265,4.126,8.387
		c0.435,1.788,1.616,2.793,3.424,3.104c0,1.01,0,2.008,0,3.047C5.121,14.316,3.203,13.238,1.98,11.141z"/>
</g>
</svg>
