<?xml version="1.0" encoding="utf-8"?>
<!-- Generator: Adobe Illustrator 16.0.0, SVG Export Plug-In . SVG Version: 6.00 Build 0)  -->
<!DOCTYPE svg PUBLIC "-//W3C//DTD SVG 1.1//EN" "http://www.w3.org/Graphics/SVG/1.1/DTD/svg11.dtd">
<svg version="1.1" id="Layer_1" xmlns="http://www.w3.org/2000/svg" xmlns:xlink="http://www.w3.org/1999/xlink" x="0px" y="0px"
	 width="503.26px" height="503.26px" viewBox="7.695 0 503.26 503.26" enable-background="new 7.695 0 503.26 503.26"
	 xml:space="preserve">
<g>
	<path fill="#FFFFFF" d="M451.496,0.112C385.564,0.096,319.632,0.121,253.7,0.002c-3.955-0.007-5.47,1.482-6.839,3.926
		c-8.34,14.869-16.754,29.712-25.141,44.564c-32.691,57.886-65.388,115.771-98.068,173.659
		c-6.902,12.226-13.751,24.471-21.021,37.413c30.536,0,60.13,0,90.951,0c-47.664,81.574-94.862,162.353-142.06,243.131
		c0.357,0.188,0.714,0.376,1.071,0.563"/>
	<path d="M193.583,259.563c-30.821,0-60.414,0-90.952,0c7.27-12.941,14.118-25.188,21.02-37.414
		c32.681-57.889,65.377-115.773,98.069-173.659c8.387-14.853,16.801-29.695,25.141-44.564c1.369-2.443,2.884-3.933,6.837-3.926
		c65.933,0.119,131.866,0.095,197.798,0.11c0.403,0,0.808,0.124,2.244,0.359c-38.889,51.327-90.847,119.098-130.146,170.968
		c37.889,0,143.213,0.323,143.535,0.692C335.092,287.931,184.627,387.459,52.592,503.258c-0.357-0.188-0.714-0.377-1.071-0.563
		C98.72,421.916,145.918,341.138,193.583,259.563z"/>
</g>
</svg>
